solid 112box
facet normal 0.0 0.0 1.0
  outer loop
    vertex 39.999999999999986 0.0 19.999999999999996
    vertex 0.0 19.999999999999996 19.999999999999996
    vertex 0.0 0.0 19.999999999999996
  endloop
endfacet
facet normal 0.0 0.0 1.0
  outer loop
    vertex 0.0 19.999999999999996 19.999999999999996
    vertex 39.999999999999986 0.0 19.999999999999996
    vertex 39.999999999999986 19.999999999999996 19.999999999999996
  endloop
endfacet
facet normal 0.0 0.0 -1.0
  outer loop
    vertex 39.999999999999986 19.999999999999996 0.0
    vertex 0.0 0.0 0.0
    vertex 0.0 19.999999999999996 0.0
  endloop
endfacet
facet normal 0.0 0.0 -1.0
  outer loop
    vertex 0.0 0.0 0.0
    vertex 39.999999999999986 19.999999999999996 0.0
    vertex 39.999999999999986 0.0 0.0
  endloop
endfacet
facet normal -1.0 0.0 0.0
  outer loop
    vertex 0.0 19.999999999999996 19.999999999999996
    vertex 0.0 0.0 0.0
    vertex 0.0 0.0 19.999999999999996
  endloop
endfacet
facet normal -1.0 0.0 0.0
  outer loop
    vertex 0.0 0.0 0.0
    vertex 0.0 19.999999999999996 19.999999999999996
    vertex 0.0 19.999999999999996 0.0
  endloop
endfacet
facet normal 1.0 0.0 0.0
  outer loop
    vertex 39.999999999999986 19.999999999999996 0.0
    vertex 39.999999999999986 0.0 19.999999999999996
    vertex 39.999999999999986 0.0 0.0
  endloop
endfacet
facet normal 1.0 0.0 0.0
  outer loop
    vertex 39.999999999999986 0.0 19.999999999999996
    vertex 39.999999999999986 19.999999999999996 0.0
    vertex 39.999999999999986 19.999999999999996 19.999999999999996
  endloop
endfacet
facet normal 0.0 1.0 0.0
  outer loop
    vertex 0.0 19.999999999999996 19.999999999999996
    vertex 39.999999999999986 19.999999999999996 0.0
    vertex 0.0 19.999999999999996 0.0
  endloop
endfacet
facet normal 0.0 1.0 0.0
  outer loop
    vertex 39.999999999999986 19.999999999999996 0.0
    vertex 0.0 19.999999999999996 19.999999999999996
    vertex 39.999999999999986 19.999999999999996 19.999999999999996
  endloop
endfacet
facet normal -0.0 -1.0 -0.0
  outer loop
    vertex 39.999999999999986 0.0 19.999999999999996
    vertex 0.0 0.0 0.0
    vertex 39.999999999999986 0.0 0.0
  endloop
endfacet
facet normal -0.0 -1.0 -0.0
  outer loop
    vertex 0.0 0.0 0.0
    vertex 39.999999999999986 0.0 19.999999999999996
    vertex 0.0 0.0 19.999999999999996
  endloop
endfacet
endsolid 112box
