solid 뒷판181605
facet normal -1.0 -0.0 -0.0
  outer loop
    vertex 0.0 159.99999999999997 5.031918422096705
    vertex 0.0 0.0 0.03191842209670724
    vertex 0.0 0.0 5.031918422096705
  endloop
endfacet
facet normal -1.0 -0.0 -0.0
  outer loop
    vertex 0.0 0.0 0.03191842209670724
    vertex 0.0 159.99999999999997 5.031918422096705
    vertex 0.0 159.99999999999997 0.03191842209670724
  endloop
endfacet
facet normal 0.0 1.0 0.0
  outer loop
    vertex 0.0 159.99999999999997 5.031918422096705
    vertex 179.99999999999994 159.99999999999997 0.03191842209670724
    vertex 0.0 159.99999999999997 0.03191842209670724
  endloop
endfacet
facet normal 0.0 1.0 0.0
  outer loop
    vertex 179.99999999999994 159.99999999999997 0.03191842209670724
    vertex 0.0 159.99999999999997 5.031918422096705
    vertex 179.99999999999994 159.99999999999997 5.031918422096705
  endloop
endfacet
facet normal 0.0 -1.0 0.0
  outer loop
    vertex 179.99999999999994 0.0 5.031918422096705
    vertex 0.0 0.0 0.03191842209670724
    vertex 179.99999999999994 0.0 0.03191842209670724
  endloop
endfacet
facet normal 0.0 -1.0 0.0
  outer loop
    vertex 0.0 0.0 0.03191842209670724
    vertex 179.99999999999994 0.0 5.031918422096705
    vertex 0.0 0.0 5.031918422096705
  endloop
endfacet
facet normal 0.0 0.0 1.0
  outer loop
    vertex 179.99999999999994 0.0 5.031918422096705
    vertex 0.0 159.99999999999997 5.031918422096705
    vertex 0.0 0.0 5.031918422096705
  endloop
endfacet
facet normal 0.0 0.0 1.0
  outer loop
    vertex 0.0 159.99999999999997 5.031918422096705
    vertex 179.99999999999994 0.0 5.031918422096705
    vertex 179.99999999999994 159.99999999999997 5.031918422096705
  endloop
endfacet
facet normal 0.0 0.0 -1.0
  outer loop
    vertex 179.99999999999994 159.99999999999997 0.03191842209670724
    vertex 0.0 0.0 0.03191842209670724
    vertex 0.0 159.99999999999997 0.03191842209670724
  endloop
endfacet
facet normal 0.0 0.0 -1.0
  outer loop
    vertex 0.0 0.0 0.03191842209670724
    vertex 179.99999999999994 159.99999999999997 0.03191842209670724
    vertex 179.99999999999994 0.0 0.03191842209670724
  endloop
endfacet
facet normal 1.0 0.0 0.0
  outer loop
    vertex 179.99999999999994 159.99999999999997 0.03191842209670724
    vertex 179.99999999999994 0.0 5.031918422096705
    vertex 179.99999999999994 0.0 0.03191842209670724
  endloop
endfacet
facet normal 1.0 0.0 0.0
  outer loop
    vertex 179.99999999999994 0.0 5.031918422096705
    vertex 179.99999999999994 159.99999999999997 0.03191842209670724
    vertex 179.99999999999994 159.99999999999997 5.031918422096705
  endloop
endfacet
endsolid 뒷판181605
