solid 뒷판1515505
facet normal -1.0 -0.0 -0.0
  outer loop
    vertex 0.0 159.99999999999997 5.031918422096705
    vertex 0.0 0.0 0.03191842209670724
    vertex 0.0 0.0 5.031918422096705
  endloop
endfacet
facet normal -1.0 -0.0 -0.0
  outer loop
    vertex 0.0 0.0 0.03191842209670724
    vertex 0.0 159.99999999999997 5.031918422096705
    vertex 0.0 159.99999999999997 0.03191842209670724
  endloop
endfacet
facet normal 0.0 0.0 1.0
  outer loop
    vertex 199.99999999999991 0.0 5.031918422096705
    vertex 0.0 159.99999999999997 5.031918422096705
    vertex 0.0 0.0 5.031918422096705
  endloop
endfacet
facet normal 0.0 0.0 1.0
  outer loop
    vertex 0.0 159.99999999999997 5.031918422096705
    vertex 199.99999999999991 0.0 5.031918422096705
    vertex 199.99999999999991 159.99999999999997 5.031918422096705
  endloop
endfacet
facet normal 1.0 0.0 0.0
  outer loop
    vertex 199.99999999999991 159.99999999999997 0.03191842209670724
    vertex 199.99999999999991 0.0 5.031918422096705
    vertex 199.99999999999991 0.0 0.03191842209670724
  endloop
endfacet
facet normal 1.0 0.0 0.0
  outer loop
    vertex 199.99999999999991 0.0 5.031918422096705
    vertex 199.99999999999991 159.99999999999997 0.03191842209670724
    vertex 199.99999999999991 159.99999999999997 5.031918422096705
  endloop
endfacet
facet normal 0.0 1.0 0.0
  outer loop
    vertex 0.0 159.99999999999997 5.031918422096705
    vertex 199.99999999999991 159.99999999999997 0.03191842209670724
    vertex 0.0 159.99999999999997 0.03191842209670724
  endloop
endfacet
facet normal 0.0 1.0 0.0
  outer loop
    vertex 199.99999999999991 159.99999999999997 0.03191842209670724
    vertex 0.0 159.99999999999997 5.031918422096705
    vertex 199.99999999999991 159.99999999999997 5.031918422096705
  endloop
endfacet
facet normal 0.0 -1.0 0.0
  outer loop
    vertex 199.99999999999991 0.0 5.031918422096705
    vertex 0.0 0.0 0.03191842209670724
    vertex 199.99999999999991 0.0 0.03191842209670724
  endloop
endfacet
facet normal 0.0 -1.0 0.0
  outer loop
    vertex 0.0 0.0 0.03191842209670724
    vertex 199.99999999999991 0.0 5.031918422096705
    vertex 0.0 0.0 5.031918422096705
  endloop
endfacet
facet normal 0.0 0.0 -1.0
  outer loop
    vertex 199.99999999999991 159.99999999999997 0.03191842209670724
    vertex 0.0 0.0 0.03191842209670724
    vertex 0.0 159.99999999999997 0.03191842209670724
  endloop
endfacet
facet normal 0.0 0.0 -1.0
  outer loop
    vertex 0.0 0.0 0.03191842209670724
    vertex 199.99999999999991 159.99999999999997 0.03191842209670724
    vertex 199.99999999999991 0.0 0.03191842209670724
  endloop
endfacet
endsolid 뒷판1515505
