solid 밑판181805
facet normal -1.0 0.0 0.0
  outer loop
    vertex 0.0 179.99999999999994 5.000000000000011
    vertex 0.0 0.0 0.0
    vertex 0.0 0.0 5.000000000000011
  endloop
endfacet
facet normal -1.0 0.0 0.0
  outer loop
    vertex 0.0 0.0 0.0
    vertex 0.0 179.99999999999994 5.000000000000011
    vertex 0.0 179.99999999999994 0.0
  endloop
endfacet
facet normal 0.0 1.0 0.0
  outer loop
    vertex 0.0 179.99999999999994 5.000000000000011
    vertex 180.0000000000002 179.99999999999994 0.0
    vertex 0.0 179.99999999999994 0.0
  endloop
endfacet
facet normal 0.0 1.0 0.0
  outer loop
    vertex 180.0000000000002 179.99999999999994 0.0
    vertex 0.0 179.99999999999994 5.000000000000011
    vertex 180.0000000000002 179.99999999999994 5.000000000000011
  endloop
endfacet
facet normal 0.0 0.0 1.0
  outer loop
    vertex 180.0000000000002 0.0 5.000000000000011
    vertex 0.0 179.99999999999994 5.000000000000011
    vertex 0.0 0.0 5.000000000000011
  endloop
endfacet
facet normal 0.0 0.0 1.0
  outer loop
    vertex 0.0 179.99999999999994 5.000000000000011
    vertex 180.0000000000002 0.0 5.000000000000011
    vertex 180.0000000000002 179.99999999999994 5.000000000000011
  endloop
endfacet
facet normal 0.0 0.0 -1.0
  outer loop
    vertex 180.0000000000002 179.99999999999994 0.0
    vertex 0.0 0.0 0.0
    vertex 0.0 179.99999999999994 0.0
  endloop
endfacet
facet normal 0.0 0.0 -1.0
  outer loop
    vertex 0.0 0.0 0.0
    vertex 180.0000000000002 179.99999999999994 0.0
    vertex 180.0000000000002 0.0 0.0
  endloop
endfacet
facet normal -0.0 -1.0 -0.0
  outer loop
    vertex 180.0000000000002 0.0 5.000000000000011
    vertex 0.0 0.0 0.0
    vertex 180.0000000000002 0.0 0.0
  endloop
endfacet
facet normal -0.0 -1.0 -0.0
  outer loop
    vertex 0.0 0.0 0.0
    vertex 180.0000000000002 0.0 5.000000000000011
    vertex 0.0 0.0 5.000000000000011
  endloop
endfacet
facet normal 1.0 0.0 0.0
  outer loop
    vertex 180.0000000000002 179.99999999999994 0.0
    vertex 180.0000000000002 0.0 5.000000000000011
    vertex 180.0000000000002 0.0 0.0
  endloop
endfacet
facet normal 1.0 0.0 0.0
  outer loop
    vertex 180.0000000000002 0.0 5.000000000000011
    vertex 180.0000000000002 179.99999999999994 0.0
    vertex 180.0000000000002 179.99999999999994 5.000000000000011
  endloop
endfacet
endsolid 밑판181805
