solid 밑판301505
facet normal 1.0 0.0 0.0
  outer loop
    vertex 300.0 150.0 0.0
    vertex 300.0 0.0 5.000000000000001
    vertex 300.0 0.0 0.0
  endloop
endfacet
facet normal 1.0 0.0 0.0
  outer loop
    vertex 300.0 0.0 5.000000000000001
    vertex 300.0 150.0 0.0
    vertex 300.0 150.0 5.000000000000001
  endloop
endfacet
facet normal 0.0 1.0 0.0
  outer loop
    vertex 0.0 150.0 5.000000000000001
    vertex 300.0 150.0 0.0
    vertex 0.0 150.0 0.0
  endloop
endfacet
facet normal 0.0 1.0 0.0
  outer loop
    vertex 300.0 150.0 0.0
    vertex 0.0 150.0 5.000000000000001
    vertex 300.0 150.0 5.000000000000001
  endloop
endfacet
facet normal -1.0 0.0 0.0
  outer loop
    vertex 0.0 150.0 5.000000000000001
    vertex 0.0 0.0 0.0
    vertex 0.0 0.0 5.000000000000001
  endloop
endfacet
facet normal -1.0 0.0 0.0
  outer loop
    vertex 0.0 0.0 0.0
    vertex 0.0 150.0 5.000000000000001
    vertex 0.0 150.0 0.0
  endloop
endfacet
facet normal -0.0 -1.0 -0.0
  outer loop
    vertex 300.0 0.0 5.000000000000001
    vertex 0.0 0.0 0.0
    vertex 300.0 0.0 0.0
  endloop
endfacet
facet normal -0.0 -1.0 -0.0
  outer loop
    vertex 0.0 0.0 0.0
    vertex 300.0 0.0 5.000000000000001
    vertex 0.0 0.0 5.000000000000001
  endloop
endfacet
facet normal 0.0 0.0 -1.0
  outer loop
    vertex 300.0 150.0 0.0
    vertex 0.0 0.0 0.0
    vertex 0.0 150.0 0.0
  endloop
endfacet
facet normal 0.0 0.0 -1.0
  outer loop
    vertex 0.0 0.0 0.0
    vertex 300.0 150.0 0.0
    vertex 300.0 0.0 0.0
  endloop
endfacet
facet normal 0.0 0.0 1.0
  outer loop
    vertex 300.0 0.0 5.000000000000001
    vertex 0.0 150.0 5.000000000000001
    vertex 0.0 0.0 5.000000000000001
  endloop
endfacet
facet normal 0.0 0.0 1.0
  outer loop
    vertex 0.0 150.0 5.000000000000001
    vertex 300.0 0.0 5.000000000000001
    vertex 300.0 150.0 5.000000000000001
  endloop
endfacet
endsolid 밑판301505
