solid 옆면3015505
facet normal 0.0 0.0 -1.0
  outer loop
    vertex 200.00000000000017 164.99999999999997 0.5203217039436928
    vertex 0.0 0.0 0.5203217039436928
    vertex 0.0 164.99999999999997 0.5203217039436928
  endloop
endfacet
facet normal 0.0 0.0 -1.0
  outer loop
    vertex 0.0 0.0 0.5203217039436928
    vertex 200.00000000000017 164.99999999999997 0.5203217039436928
    vertex 200.00000000000017 0.0 0.5203217039436928
  endloop
endfacet
facet normal 0.0 -1.0 0.0
  outer loop
    vertex 200.00000000000017 0.0 5.520321703943696
    vertex 0.0 0.0 0.5203217039436928
    vertex 200.00000000000017 0.0 0.5203217039436928
  endloop
endfacet
facet normal 0.0 -1.0 0.0
  outer loop
    vertex 0.0 0.0 0.5203217039436928
    vertex 200.00000000000017 0.0 5.520321703943696
    vertex 0.0 0.0 5.520321703943696
  endloop
endfacet
facet normal 0.0 0.0 1.0
  outer loop
    vertex 200.00000000000017 0.0 5.520321703943696
    vertex 0.0 164.99999999999997 5.520321703943696
    vertex 0.0 0.0 5.520321703943696
  endloop
endfacet
facet normal 0.0 0.0 1.0
  outer loop
    vertex 0.0 164.99999999999997 5.520321703943696
    vertex 200.00000000000017 0.0 5.520321703943696
    vertex 200.00000000000017 164.99999999999997 5.520321703943696
  endloop
endfacet
facet normal 0.0 1.0 0.0
  outer loop
    vertex 0.0 164.99999999999997 5.520321703943696
    vertex 200.00000000000017 164.99999999999997 0.5203217039436928
    vertex 0.0 164.99999999999997 0.5203217039436928
  endloop
endfacet
facet normal 0.0 1.0 0.0
  outer loop
    vertex 200.00000000000017 164.99999999999997 0.5203217039436928
    vertex 0.0 164.99999999999997 5.520321703943696
    vertex 200.00000000000017 164.99999999999997 5.520321703943696
  endloop
endfacet
facet normal -1.0 0.0 0.0
  outer loop
    vertex 0.0 164.99999999999997 5.520321703943696
    vertex 0.0 0.0 0.5203217039436928
    vertex 0.0 0.0 5.520321703943696
  endloop
endfacet
facet normal -1.0 0.0 0.0
  outer loop
    vertex 0.0 0.0 0.5203217039436928
    vertex 0.0 164.99999999999997 5.520321703943696
    vertex 0.0 164.99999999999997 0.5203217039436928
  endloop
endfacet
facet normal 1.0 0.0 0.0
  outer loop
    vertex 200.00000000000017 164.99999999999997 0.5203217039436928
    vertex 200.00000000000017 0.0 5.520321703943696
    vertex 200.00000000000017 0.0 0.5203217039436928
  endloop
endfacet
facet normal 1.0 0.0 0.0
  outer loop
    vertex 200.00000000000017 0.0 5.520321703943696
    vertex 200.00000000000017 164.99999999999997 0.5203217039436928
    vertex 200.00000000000017 164.99999999999997 5.520321703943696
  endloop
endfacet
endsolid 옆면3015505
